<svg width="430" height="229" viewBox="0 0 430 229" fill="none" xmlns="http://www.w3.org/2000/svg">
<path d="M0 191.349H430" stroke="#263238" stroke-width="0.820084" stroke-linecap="round" stroke-linejoin="round"/>
<path d="M143.829 191.367L121.129 211.131L151.319 212.95L171.293 192.727L143.829 191.367Z" fill="white" stroke="#263238" stroke-width="0.820084" stroke-linecap="round" stroke-linejoin="round"/>
<path d="M171.293 192.727L200.355 194.087L182.189 215.22L151.319 212.95L171.293 192.727Z" fill="white" stroke="#263238" stroke-width="0.820084" stroke-linecap="round" stroke-linejoin="round"/>
<path d="M142.333 197.414L159.718 198.7" stroke="#263238" stroke-width="0.820084" stroke-linecap="round" stroke-linejoin="round"/>
<path d="M134.916 202.025L156.909 203.303" stroke="#263238" stroke-width="0.820084" stroke-linecap="round" stroke-linejoin="round"/>
<path d="M131.593 205.866L152.816 207.401" stroke="#263238" stroke-width="0.820084" stroke-linecap="round" stroke-linejoin="round"/>
<path d="M160.489 208.42L182.483 209.964" stroke="#263238" stroke-width="0.820084" stroke-linecap="round" stroke-linejoin="round"/>
<path d="M121.129 211.131L120.679 212.951L151.319 214.77V212.951L121.129 211.131Z" fill="#263238" stroke="#263238" stroke-width="0.820084" stroke-linecap="round" stroke-linejoin="round"/>
<path d="M151.319 213.63V214.77L182.868 217.039L200.125 195.677L199.446 194.546L182.189 215.22L151.319 213.63Z" fill="#263238" stroke="#263238" stroke-width="0.820084" stroke-linecap="round" stroke-linejoin="round"/>
<path d="M103.027 183.594C110.621 183.594 116.778 181.619 116.778 179.184C116.778 176.748 110.621 174.773 103.027 174.773C95.433 174.773 89.2767 176.748 89.2767 179.184C89.2767 181.619 95.433 183.594 103.027 183.594Z" fill="white" stroke="black" stroke-width="0.820084" stroke-linecap="round" stroke-linejoin="round"/>
<path d="M104.358 162.636L106.194 158.777L106.993 162.921L103.56 195.382C103.542 195.555 103.491 195.723 103.409 195.876C103.326 196.029 103.215 196.164 103.08 196.273C102.945 196.383 102.79 196.464 102.623 196.513C102.456 196.562 102.282 196.578 102.109 196.559C101.761 196.521 101.442 196.348 101.222 196.076C101.002 195.804 100.898 195.455 100.934 195.107L104.358 162.636Z" fill="white" stroke="black" stroke-width="0.820084" stroke-linecap="round" stroke-linejoin="round"/>
<path d="M100.971 195.107C100.954 195.445 101.067 195.776 101.287 196.033C101.507 196.29 101.817 196.453 102.153 196.489C102.489 196.524 102.826 196.429 103.095 196.223C103.363 196.017 103.543 195.717 103.596 195.383L104.193 189.769L101.568 189.521L100.971 195.107Z" fill="white" stroke="black" stroke-width="0.820084" stroke-linecap="round" stroke-linejoin="round"/>
<path d="M102.1 196.559C102.273 196.578 102.447 196.562 102.614 196.514C102.78 196.465 102.936 196.383 103.071 196.274C103.205 196.164 103.317 196.029 103.4 195.876C103.482 195.723 103.533 195.556 103.55 195.383L103.991 191.248L101.366 190.945L100.925 195.107C100.889 195.455 100.993 195.804 101.213 196.076C101.433 196.348 101.752 196.522 102.1 196.559Z" fill="white" stroke="black" stroke-width="0.820084" stroke-linecap="round" stroke-linejoin="round"/>
<path d="M104.358 162.636L104.34 162.847L106.965 163.15L106.983 162.921L106.185 158.777L104.358 162.636Z" fill="white" stroke="black" stroke-width="0.820084" stroke-linecap="round" stroke-linejoin="round"/>
<path d="M112.555 165.466L115.437 162.314L114.988 166.513L102.137 196.504C101.997 196.825 101.737 197.078 101.413 197.209C101.088 197.34 100.725 197.337 100.402 197.202C100.081 197.062 99.8277 196.802 99.6972 196.477C99.5666 196.152 99.5692 195.788 99.7043 195.465L112.555 165.466Z" fill="black" stroke="black" stroke-width="0.820084" stroke-linecap="round" stroke-linejoin="round"/>
<path d="M99.6768 195.465C99.5392 195.788 99.5354 196.153 99.6663 196.478C99.7971 196.804 100.052 197.064 100.374 197.202C100.697 197.34 101.061 197.344 101.386 197.213C101.712 197.082 101.972 196.827 102.109 196.504L104.331 191.322L101.889 190.302L99.6768 195.465Z" fill="white" stroke="black" stroke-width="0.820084" stroke-linecap="round" stroke-linejoin="round"/>
<path d="M100.374 197.201C100.697 197.337 101.06 197.339 101.385 197.209C101.71 197.078 101.97 196.824 102.109 196.503L103.725 192.708L101.302 191.643L99.6493 195.492C99.5243 195.816 99.5301 196.175 99.6655 196.494C99.8009 196.813 100.055 197.067 100.374 197.201Z" fill="white" stroke="black" stroke-width="0.820084" stroke-linecap="round" stroke-linejoin="round"/>
<path d="M112.555 165.466L112.473 165.659L114.896 166.725L114.988 166.513L115.437 162.314L112.555 165.466Z" fill="white" stroke="black" stroke-width="0.820084" stroke-linecap="round" stroke-linejoin="round"/>
<path d="M100.558 194.032L97.9143 193.94L98.9516 161.313C98.9563 161.139 98.9953 160.969 99.0662 160.81C99.1372 160.652 99.2388 160.51 99.3651 160.391C99.4914 160.272 99.6399 160.18 99.8021 160.119C99.9643 160.058 100.137 160.029 100.31 160.035C100.483 160.04 100.654 160.079 100.812 160.15C100.97 160.221 101.112 160.323 101.231 160.449C101.35 160.576 101.442 160.724 101.503 160.887C101.564 161.049 101.592 161.222 101.586 161.395L100.558 194.032Z" fill="black" stroke="black" stroke-width="0.820084" stroke-linecap="round" stroke-linejoin="round"/>
<path d="M101.586 161.396C101.571 161.063 101.431 160.748 101.194 160.515C100.956 160.281 100.64 160.145 100.307 160.134C99.9744 160.124 99.6499 160.24 99.3986 160.458C99.1474 160.677 98.9877 160.982 98.9517 161.313L98.7681 166.955L101.412 167.01L101.586 161.396Z" fill="white" stroke="black" stroke-width="0.820084" stroke-linecap="round" stroke-linejoin="round"/>
<path d="M100.31 160.035C100.137 160.029 99.9644 160.058 99.8022 160.119C99.64 160.18 99.4915 160.272 99.3652 160.391C99.2389 160.51 99.1373 160.652 99.0663 160.81C98.9954 160.969 98.9564 161.139 98.9517 161.313L98.814 165.475L101.458 165.576L101.586 161.395C101.592 161.222 101.564 161.049 101.503 160.887C101.442 160.724 101.35 160.576 101.231 160.449C101.112 160.323 100.97 160.221 100.812 160.15C100.654 160.079 100.483 160.04 100.31 160.035Z" fill="white" stroke="black" stroke-width="0.820084" stroke-linecap="round" stroke-linejoin="round"/>
<path d="M103.027 183.594C95.4269 183.594 89.2584 181.618 89.2584 179.184V210.341C89.2584 212.775 95.4085 214.751 103.027 214.751C110.646 214.751 116.796 212.775 116.796 210.341V179.184C116.769 181.618 110.618 183.594 103.027 183.594Z" fill="black" stroke="black" stroke-width="0.820084" stroke-linecap="round" stroke-linejoin="round"/>
<path d="M241.523 141.678C239.871 156.581 238.852 177.511 238.769 191.386H329.423C329.332 177.475 328.313 156.581 326.67 141.678C324.944 126.104 329.781 120.545 332.893 102.224C336.005 83.9026 334.279 44.7611 331.516 40.948C330.259 39.2206 327.294 38.7061 324.421 38.6602C322.35 45.6789 318.367 51.9816 312.919 56.8619C298.517 69.7896 271.87 73.5108 253.254 55.8696C248.349 51.2318 244.92 45.2487 243.396 38.6694C240.642 38.752 237.888 39.2941 236.658 40.948C233.905 44.7611 232.16 83.875 235.272 102.224C238.384 120.572 243.249 126.104 241.523 141.678Z" fill="black" stroke="black" stroke-width="0.820084" stroke-linecap="round" stroke-linejoin="round"/>
<path d="M322.19 16.369C325.32 32.6044 320.804 46.4877 310.771 55.4921C297.461 67.4367 272.815 70.873 255.65 54.5733C238.485 38.2735 247.114 11.8851 253.713 11.8851C260.313 11.8851 321.052 10.5712 322.19 16.369Z" fill="black" stroke="black" stroke-width="0.820084" stroke-linecap="round" stroke-linejoin="round"/>
<path d="M230.747 190.54C230.747 190.54 221.283 191.643 219.961 191.643C218.64 191.643 217.979 193.186 219.741 194.73C221.503 196.273 227.452 195.391 227.452 195.391L230.747 190.54Z" fill="white" stroke="black" stroke-width="0.820084" stroke-linecap="round" stroke-linejoin="round"/>
<path d="M229.792 68.8247V78.7755C229.792 78.7755 213.068 87.2929 206.018 89.939C198.968 92.5852 193.984 94.9374 193.103 99.0445C192.222 103.152 183.713 141.365 183.125 146.06C182.538 150.755 178.132 155.175 178.132 157.812C178.059 159.113 178.259 160.415 178.719 161.634C178.719 161.634 180.775 171.328 187.816 175.15C194.856 178.972 200.731 174.231 203.962 171.622C207.193 169.012 210.387 162.222 210.387 162.222C210.387 162.222 208.038 184.853 207.744 186.902C207.557 188.364 207.459 189.837 207.45 191.312H291.697C291.528 173.744 292.411 156.181 294.34 138.719C295.497 127.904 293.423 94.0553 290.228 89.1029C287.034 84.1505 278.488 81.4676 271.154 79.4094C263.82 77.3513 254.42 75.5872 254.42 75.5872L254.126 71.7649L229.792 68.8247Z" fill="#FF5B42" stroke="black" stroke-width="0.820084" stroke-linecap="round" stroke-linejoin="round"/>
<path d="M204.485 126.131L203.375 119.359" stroke="black" stroke-width="0.820084" stroke-linecap="round" stroke-linejoin="round"/>
<path d="M210.424 162.259L205.183 130.357" stroke="black" stroke-width="0.820084" stroke-linecap="round" stroke-linejoin="round"/>
<path d="M241.248 102.61C261.442 105.136 282.389 86.2546 285.014 84.5272C281.049 82.2762 275.881 80.7142 271.19 79.4002C263.847 77.3421 254.457 75.578 254.457 75.578L254.163 71.7557L229.792 68.8247V78.7755C229.792 78.7755 218.777 84.3802 210.874 87.9085C219.048 96.1042 229.754 101.286 241.248 102.61Z" fill="white" stroke="black" stroke-width="0.820084" stroke-linecap="round" stroke-linejoin="round"/>
<path d="M229.792 78.7759C229.52 82.8142 229.033 86.8351 228.333 90.8215" stroke="black" stroke-width="0.820084" stroke-linecap="round" stroke-linejoin="round"/>
<path d="M254.457 75.5781C254.457 75.5781 255.044 84.0955 255.925 87.0357" stroke="black" stroke-width="0.820084" stroke-linecap="round" stroke-linejoin="round"/>
<path d="M262.847 4.96717C257.449 1.87996 246.205 -0.343579 240.119 0.915197C233.629 2.24748 225.12 5.05906 218.419 10.9303C205.871 21.9561 210.498 38.706 211.599 40.2405L212.701 41.7841C212.176 46.0237 211.367 50.2231 210.277 54.3535C208.295 62.2828 217.979 69.9733 229.866 72.1968C241.753 74.4204 260.91 72.6379 273.458 68.8983C286.006 65.1587 288.227 55.2263 283.812 40.461C279.397 25.6956 274.633 12.3269 267.372 7.70524C265.747 6.66698 264.233 5.75735 262.847 4.96717Z" fill="#B76F00" stroke="black" stroke-width="0.820084" stroke-linecap="round" stroke-linejoin="round"/>
<path d="M239.219 18.6297C240.122 18.4004 241.044 18.2589 241.973 18.207" stroke="black" stroke-width="0.820084" stroke-linecap="round" stroke-linejoin="round"/>
<path d="M215.555 40.9023C215.555 40.9023 212.48 39.809 213.793 35.3895C214.867 31.8061 226.837 22.9947 236.126 19.5767" stroke="black" stroke-width="0.820084" stroke-linecap="round" stroke-linejoin="round"/>
<path d="M236.631 10.9393C237.641 10.829 238.687 10.7555 239.779 10.7188" stroke="black" stroke-width="0.820084" stroke-linecap="round" stroke-linejoin="round"/>
<path d="M211.122 31.9157C211.122 31.9157 214.601 15.0463 233.767 11.417" stroke="black" stroke-width="0.820084" stroke-linecap="round" stroke-linejoin="round"/>
<path d="M248.454 7.36523C246.728 10.5627 244.672 14.8995 244.176 18.2073" stroke="black" stroke-width="0.820084" stroke-linecap="round" stroke-linejoin="round"/>
<path d="M251.005 3.00049C251.005 3.00049 250.739 3.41395 250.308 4.13063" stroke="black" stroke-width="0.820084" stroke-linecap="round" stroke-linejoin="round"/>
<path d="M263.131 14.9634C270.018 21.3265 275.294 29.2376 278.525 38.044" stroke="black" stroke-width="0.820084" stroke-linecap="round" stroke-linejoin="round"/>
<path d="M255.852 9.6167C257.765 10.6776 259.57 11.924 261.24 13.3379" stroke="black" stroke-width="0.820084" stroke-linecap="round" stroke-linejoin="round"/>
<path d="M281.673 60.5923C279.93 63.6598 277.063 65.9272 273.678 66.9137" stroke="black" stroke-width="0.820084" stroke-linecap="round" stroke-linejoin="round"/>
<path d="M263.774 24.3818C263.774 24.3818 283.812 43.5483 283.371 54.133C283.326 55.3441 283.144 56.5461 282.83 57.7164" stroke="black" stroke-width="0.820084" stroke-linecap="round" stroke-linejoin="round"/>
<path d="M267.519 52.1299C267.519 52.1299 273.678 55.649 271.044 62.0439C268.409 68.4389 264.214 66.638 264.214 66.638" stroke="black" stroke-width="0.820084" stroke-linecap="round" stroke-linejoin="round"/>
<path d="M243.561 22.3789C238.619 27.3684 233.009 31.648 226.892 35.0953L216.308 41.187C216.308 41.187 222.66 64.7547 225.57 69.2569C228.48 73.759 233.501 80.3745 240.652 80.3745C247.802 80.3745 258.377 70.047 258.9 68.2002C259.423 66.3534 261.81 56.8069 261.81 56.8069C263.003 56.0524 263.929 54.9398 264.453 53.6278C264.802 52.1523 264.98 50.6418 264.986 49.1256C264.986 49.1256 253.053 37.7415 248.849 32.7064C246.319 29.715 244.51 26.1815 243.561 22.3789Z" fill="white" stroke="black" stroke-width="0.820084" stroke-linecap="round" stroke-linejoin="round"/>
<path d="M234.988 46.6813L217.354 45.5052C217.199 45.4937 217.044 45.5183 216.9 45.5769C216.756 45.6355 216.627 45.7266 216.524 45.8431C216.421 45.9596 216.346 46.0983 216.306 46.2485C216.265 46.3986 216.26 46.5562 216.29 46.7088C216.822 49.3826 218.181 55.3824 220.016 56.8158C222.403 58.6534 229.443 58.3686 230.875 58.3686C233.914 58.3686 235.685 50.1452 235.878 49.2264C235.882 49.1683 235.882 49.1099 235.878 49.0518V47.7287C235.887 47.4744 235.801 47.226 235.636 47.0322C235.471 46.8384 235.24 46.7132 234.988 46.6813V46.6813Z" stroke="black" stroke-width="1.64017" stroke-linecap="round" stroke-linejoin="round"/>
<path d="M240.495 47.1867L258.165 47.6644C258.319 47.6703 258.468 47.7114 258.603 47.7844C258.738 47.8575 258.855 47.9606 258.943 48.0858C259.032 48.2111 259.091 48.355 259.115 48.5066C259.139 48.6581 259.128 48.8133 259.083 48.96C258.312 51.5694 256.394 57.4131 254.429 58.6626C251.887 60.2889 244.901 59.3242 243.479 59.1956C240.45 58.9107 239.449 50.5587 239.348 49.6215C239.339 49.5637 239.339 49.5048 239.348 49.4469L239.44 48.133C239.447 48.0014 239.48 47.8726 239.537 47.7537C239.594 47.6349 239.673 47.5285 239.771 47.4405C239.869 47.3526 239.984 47.2849 240.108 47.2414C240.232 47.1978 240.364 47.1792 240.495 47.1867Z" stroke="black" stroke-width="1.64017" stroke-linecap="round" stroke-linejoin="round"/>
<path d="M234.979 46.6816L240.486 47.187" stroke="black" stroke-width="1.64017" stroke-linecap="round" stroke-linejoin="round"/>
<path d="M236.236 48.7671L239.366 48.8682" stroke="black" stroke-width="1.64017" stroke-linecap="round" stroke-linejoin="round"/>
<path d="M259.303 48.2798L262.14 46.4238" stroke="black" stroke-width="1.64017" stroke-linecap="round" stroke-linejoin="round"/>
<path d="M248.757 51.1193C248.757 52.3597 248.188 53.3704 247.49 53.3704C246.792 53.3704 246.214 52.3597 246.214 51.1193C246.214 49.8789 246.783 48.8682 247.49 48.8682C248.197 48.8682 248.757 49.8697 248.757 51.1193Z" fill="#263238"/>
<path d="M229.398 50.6228C229.398 51.8724 228.829 52.8739 228.131 52.8739C227.433 52.8739 226.855 51.8724 226.855 50.6228C226.855 49.3732 227.424 48.3809 228.131 48.3809C228.838 48.3809 229.398 49.3732 229.398 50.6228Z" fill="#263238"/>
<path d="M235.814 52.0752C235.814 52.0752 233.611 60.8866 233.317 61.9157C233.023 62.9448 234.639 63.9738 237.576 62.9448" stroke="black" stroke-width="0.820084" stroke-linecap="round" stroke-linejoin="round"/>
<path d="M233.317 67.796C233.317 67.796 238.604 69.1099 242.717 67.502" stroke="black" stroke-width="0.820084" stroke-linecap="round" stroke-linejoin="round"/>
<path d="M242.717 45.6059C242.717 45.6059 245.645 42.2247 254.897 45.4589" stroke="black" stroke-width="0.820084" stroke-linecap="round" stroke-linejoin="round"/>
<path d="M233.758 44.8713C233.758 44.8713 228.333 40.608 222.164 43.9525" stroke="black" stroke-width="0.820084" stroke-linecap="round" stroke-linejoin="round"/>
<path d="M278.919 111.329C278.919 111.329 278.607 146.483 278.001 153.448C277.396 160.412 278.919 166.476 285.749 170.115C292.578 173.753 301.252 173.45 304.043 172.54C306.833 171.631 316.756 166.476 315.517 158.602C314.278 150.728 305.906 124.358 302.18 111.935C298.453 99.5131 297.838 93.7521 292.872 89.8012C287.906 85.8503 286.391 84.7845 282.049 87.8166" fill="#FF5B42"/>
<path d="M278.919 111.329C278.919 111.329 278.607 146.483 278.001 153.448C277.396 160.412 278.919 166.476 285.749 170.115C292.578 173.753 301.252 173.45 304.043 172.54C306.833 171.631 316.756 166.476 315.517 158.602C314.278 150.728 305.906 124.358 302.18 111.935C298.453 99.5131 297.838 93.7521 292.872 89.8012C287.906 85.8503 286.391 84.7845 282.049 87.8166" stroke="black" stroke-width="0.820084" stroke-linecap="round" stroke-linejoin="round"/>
<path d="M170.201 186.644L174.019 181.067C174.019 181.067 184.594 177.833 188.706 175.481C192.818 173.129 195.462 166.375 191.35 161.965C187.237 157.555 180.491 156.094 175.791 159.613C171.091 163.132 169.366 169.61 166.694 171.365C164.023 173.119 153.192 175.775 150.254 176.363C147.317 176.951 146.142 179.303 146.73 181.361C147.317 183.419 149.373 191.643 150.842 192.819C152.311 193.995 157.267 197.523 160.82 197.523C164.372 197.523 167.869 193.407 169.081 193.113C170.293 192.819 173.432 189.879 170.201 186.644Z" fill="white" stroke="black" stroke-width="0.820084" stroke-linecap="round" stroke-linejoin="round"/>
<path d="M163.234 177.236C163.234 177.236 161.848 190.182 162.316 190.678C162.836 191.065 163.434 191.333 164.068 191.463C164.703 191.594 165.358 191.583 165.988 191.432C167.493 191.055 169.494 181.261 169.494 179.248C169.34 177.624 168.872 176.045 168.117 174.599" stroke="black" stroke-width="0.820084" stroke-linecap="round" stroke-linejoin="round"/>
<path d="M154.44 178.237C154.44 178.237 158.709 185.909 160.342 187.039L161.976 188.169" stroke="black" stroke-width="0.820084" stroke-linecap="round" stroke-linejoin="round"/>
<path d="M149.796 182.39C149.796 182.39 154.064 190.301 156.221 191.312C158.378 192.323 163.252 194.197 168.154 193.82" stroke="black" stroke-width="0.820084" stroke-linecap="round" stroke-linejoin="round"/>
<path d="M155.128 165.87L160.351 187.003L161.857 187.499L162.114 185.239L157.644 165.236C157.6 165.066 157.523 164.907 157.416 164.767C157.31 164.628 157.176 164.512 157.023 164.426C156.871 164.34 156.702 164.286 156.528 164.268C156.353 164.249 156.177 164.266 156.01 164.317C155.692 164.413 155.423 164.628 155.259 164.917C155.095 165.206 155.048 165.547 155.128 165.87Z" fill="#263238" stroke="black" stroke-width="0.820084" stroke-linecap="round" stroke-linejoin="round"/>
<path d="M153.192 194.326C153.192 194.326 158.699 196.209 160.095 196.457C161.864 196.764 163.682 196.593 165.363 195.961" stroke="black" stroke-width="0.820084" stroke-linecap="round" stroke-linejoin="round"/>
<path d="M170.201 186.645C169.944 187.063 169.591 187.415 169.171 187.671C168.751 187.926 168.277 188.078 167.787 188.115" stroke="black" stroke-width="0.820084" stroke-linecap="round" stroke-linejoin="round"/>
<path d="M283.638 161.469C283.638 161.469 251.51 182.601 249.73 183.52C247.949 184.439 230.352 189.244 227.7 190.788C225.047 192.332 223.294 198.947 222.192 201.143C221.091 203.339 219.989 209.523 219.989 209.523C220.383 209.933 220.866 210.246 221.401 210.437C221.937 210.629 222.509 210.693 223.073 210.625C225.056 210.405 227.259 202.025 227.259 202.025L231.656 195.639C231.656 195.639 228.792 202.025 228.792 203.569C228.792 205.112 227.7 209.302 227.7 210C227.7 210.699 229.012 211.544 230.775 210.662C232.537 209.78 233.859 203.164 233.859 203.164L237.604 196.999C237.604 196.999 234.74 205.59 233.859 207.354C232.978 209.118 232.757 209.78 235.181 209.559C237.604 209.339 237.824 206.693 238.485 204.965C239.146 203.238 240.688 199.903 240.688 199.903L245.085 196.815C245.085 196.815 242.23 202.981 241.349 204.524C240.468 206.068 239.587 206.509 242.671 206.509C245.755 206.509 247.729 199.682 247.729 199.682C248.875 198.857 249.977 197.974 251.033 197.036C251.951 196.117 255.219 191.082 255.219 191.082C255.219 191.082 294.405 177.86 299.031 175.655C303.657 173.45 304.089 170.142 302.327 167.285C300.564 164.427 292.817 157.702 283.638 161.469Z" fill="white" stroke="black" stroke-width="0.820084" stroke-linecap="round" stroke-linejoin="round"/>
<path d="M286.887 227.807L258.505 204.101H309.119L286.887 227.807Z" fill="white" stroke="black" stroke-width="0.820084" stroke-linecap="round" stroke-linejoin="round"/>
<path d="M288.08 224.94L276.56 214.539H294.854L288.08 224.94Z" fill="black" stroke="black" stroke-width="0.820084" stroke-linecap="round" stroke-linejoin="round"/>
<path d="M372.722 227.807H286.887L299.976 173.293H385.811L372.722 227.807Z" fill="white" stroke="black" stroke-width="0.820084" stroke-linecap="round" stroke-linejoin="round"/>
<path d="M378.954 201.896C363.047 204.423 347.745 213.841 328.955 219.354C315.3 223.335 301.27 225.893 287.089 226.989L286.887 227.835H372.722L378.954 201.896Z" fill="black" stroke="black" stroke-width="0.820084" stroke-linecap="round" stroke-linejoin="round"/>
<path d="M338.511 205.865C341.831 205.865 344.523 203.804 344.523 201.262C344.523 198.72 341.831 196.659 338.511 196.659C335.19 196.659 332.499 198.72 332.499 201.262C332.499 203.804 335.19 205.865 338.511 205.865Z" fill="white" stroke="black" stroke-width="0.820084" stroke-linecap="round" stroke-linejoin="round"/>
</svg>
